<svg width="83" height="83" viewBox="0 0 83 83" fill="none" xmlns="http://www.w3.org/2000/svg">
<path d="M41.5 81.4533C18.5629 81.4533 12.6304 80.3352 7.54545 75.2359C2.43314 70.191 1.31225 64.3554 1.31225 41.3947C1.31225 18.5158 2.43314 12.6257 7.54545 7.52631C12.6031 2.42696 18.5629 1.30892 41.5 1.30892C64.4371 1.30892 70.3696 2.42696 75.4545 7.52631C80.5669 12.5984 81.6877 18.434 81.6877 41.3947C81.6877 64.3554 80.5669 70.191 75.4545 75.2631C70.3696 80.3625 64.4098 81.4533 41.5 81.4533ZM41.5 82.7622C64.7378 82.7622 70.9984 81.5896 76.4114 76.1903C81.8518 70.7637 83 64.5463 83 41.3675C83 18.1886 81.8518 11.9985 76.4114 6.54462C70.971 1.17258 64.7105 0 41.5 0C18.2622 0 12.0016 1.17258 6.5886 6.57189C1.17556 11.9985 0 18.2159 0 41.3947C0 64.5736 1.14822 70.7637 6.5886 76.2176C12.0016 81.5896 18.2622 82.7622 41.5 82.7622Z" fill="#1D1E23"/>
<path d="M39.6545 69.8056C36.6363 67.5161 34.4611 64.0818 33.727 60.1024H24.02V18.1822C29.2134 20.7988 32.9656 26.5226 33.3735 32.4645L34.8418 44.2392L34.1348 44.1575C32.585 44.1575 31.2255 45.6293 31.2255 47.0739C31.2255 48.4367 32.2587 49.5815 33.6182 49.8813L35.3856 50.2901C38.2949 44.7571 39.9536 39.3331 39.9536 34.0181C39.9536 29.221 39.3282 24.4239 39.2194 19.5178C39.2194 17.3373 40.0623 15.3476 41.3946 13.7939C42.7542 15.3476 43.5699 17.3373 43.5699 19.5178C43.5699 24.4239 42.8357 29.221 42.8357 34.0181C42.8357 39.3331 44.4943 44.7571 47.4037 50.2901L49.1711 49.8813C50.5306 49.5815 51.5638 48.4094 51.5638 47.0739C51.5638 45.602 50.2043 44.1575 48.6545 44.1575L47.9203 44.2665L49.3886 32.4918C50.1227 26.5499 53.5487 20.7988 58.7421 18.2095V60.1296H49.0623C48.3282 64.0818 46.2617 67.6524 43.1348 69.8329C42.4007 70.3508 41.7753 70.9776 41.3675 71.8226C40.9868 70.9776 40.3614 70.3508 39.6545 69.8056ZM28.6152 45.6293C29.023 44.0757 30.165 42.7129 31.6333 41.8679L30.4913 32.1647C30.0835 29.1392 28.8327 26.4409 26.9566 24.2331V45.602H28.6152V45.6293ZM33.5094 57.186C33.5094 55.7141 33.727 54.3786 34.0261 53.0158L32.6665 52.6887C30.6817 52.0618 29.1318 50.5082 28.6152 48.5185H26.9566V57.186H33.5094ZM39.9536 57.186C39.9536 55.4143 38.594 53.8607 36.8267 53.6427C36.5276 54.7874 36.3101 55.9322 36.3101 57.186H39.9536ZM39.9536 60.1296H36.7179C37.2345 62.4192 38.3765 64.5179 39.9536 66.2896V60.1296ZM44.5215 51.0533C43.2708 48.7638 42.1288 46.3652 41.3946 43.8576C40.6605 46.3652 39.5185 48.7638 38.2678 51.0533C39.5185 51.3531 40.5517 52.1981 41.3946 53.152C42.2375 52.1981 43.2708 51.3531 44.5215 51.0533ZM46.5064 57.186C46.5064 55.9322 46.2889 54.7874 45.9898 53.6427C44.2224 53.8607 42.8629 55.4143 42.8629 57.186H46.5064ZM46.0986 60.1296H42.8629V66.2896C44.44 64.4907 45.582 62.4192 46.0986 60.1296ZM55.8599 57.186V48.5185H54.2013C53.6847 50.5082 52.1076 52.0618 50.1499 52.6887L48.7904 53.0158C49.0895 54.3786 49.307 55.7141 49.307 57.186H55.8599ZM55.8599 45.6293V24.2331C53.9838 26.4136 52.6243 29.1392 52.3252 32.1647L51.1832 41.8679C52.6514 42.7129 53.7934 44.0484 54.2013 45.6293H55.8599Z" fill="#1D1E23"/>
</svg>
