<svg width="23" height="22" viewBox="0 0 23 22" fill="none" xmlns="http://www.w3.org/2000/svg">
<path d="M11.3033 1.98125C14.2441 1.98125 14.5924 1.99414 15.7489 2.04571C16.8237 2.09299 17.4042 2.27349 17.7911 2.42391C18.3027 2.62161 18.6725 2.86228 19.0551 3.24477C19.4421 3.63157 19.6785 3.99687 19.8763 4.5083C20.0268 4.8951 20.2074 5.47959 20.2547 6.54972C20.3063 7.7101 20.3192 8.05822 20.3192 10.9936C20.3192 13.9332 20.3063 14.2813 20.2547 15.4374C20.2074 16.5118 20.0268 17.092 19.8763 17.4788C19.6785 17.9902 19.4378 18.3598 19.0551 18.7423C18.6682 19.1291 18.3027 19.3655 17.7911 19.5632C17.4042 19.7136 16.8194 19.8941 15.7489 19.9414C14.5881 19.993 14.2398 20.0059 11.3033 20.0059C8.36254 20.0059 8.01429 19.993 6.85775 19.9414C5.7829 19.8941 5.20248 19.7136 4.81554 19.5632C4.30391 19.3655 3.93416 19.1248 3.55152 18.7423C3.16457 18.3555 2.9281 17.9902 2.73033 17.4788C2.57985 17.092 2.39928 16.5075 2.35199 15.4374C2.30039 14.277 2.28749 13.9289 2.28749 10.9936C2.28749 8.05392 2.30039 7.7058 2.35199 6.54972C2.39928 5.47529 2.57985 4.8951 2.73033 4.5083C2.9281 3.99687 3.16887 3.62727 3.55152 3.24477C3.93846 2.85798 4.30391 2.62161 4.81554 2.42391C5.20248 2.27349 5.7872 2.09299 6.85775 2.04571C8.01429 1.99414 8.36254 1.98125 11.3033 1.98125ZM11.3033 0C8.31525 0 7.9412 0.0128931 6.76746 0.0644657C5.59803 0.116038 4.79404 0.305138 4.09754 0.575894C3.37094 0.859543 2.75613 1.23344 2.14561 1.84802C1.5308 2.45829 1.15675 3.07287 0.872994 3.79488C0.602132 4.49541 0.412959 5.29478 0.361366 6.46376C0.309773 7.64134 0.296875 8.01524 0.296875 11.0021C0.296875 13.9891 0.309773 14.363 0.361366 15.5362C0.412959 16.7052 0.602132 17.5089 0.872994 18.2051C1.15675 18.9314 1.5308 19.546 2.14561 20.1563C2.75613 20.7666 3.37094 21.1448 4.09324 21.4241C4.79404 21.6949 5.59373 21.884 6.76316 21.9355C7.9369 21.9871 8.31095 22 11.299 22C14.2871 22 14.6612 21.9871 15.8349 21.9355C17.0043 21.884 17.8083 21.6949 18.5048 21.4241C19.2271 21.1448 19.8419 20.7666 20.4524 20.1563C21.0629 19.546 21.4413 18.9314 21.7208 18.2094C21.9916 17.5089 22.1808 16.7095 22.2324 15.5405C22.284 14.3673 22.2969 13.9934 22.2969 11.0064C22.2969 8.01954 22.284 7.64563 22.2324 6.47236C22.1808 5.30338 21.9916 4.49971 21.7208 3.80348C21.4499 3.07287 21.0758 2.45829 20.461 1.84802C19.8505 1.23774 19.2357 0.859543 18.5134 0.580191C17.8126 0.309435 17.0129 0.120336 15.8435 0.0687634C14.6655 0.0128931 14.2914 0 11.3033 0Z" fill="url(#paint0_linear_31_337)"/>
<path d="M11.3031 5.35071C8.18176 5.35071 5.64941 7.88206 5.64941 11.0022C5.64941 14.1223 8.18176 16.6537 11.3031 16.6537C14.4245 16.6537 16.9568 14.1223 16.9568 11.0022C16.9568 7.88206 14.4245 5.35071 11.3031 5.35071ZM11.3031 14.6682C9.2781 14.6682 7.63573 13.0264 7.63573 11.0022C7.63573 8.97798 9.2781 7.33625 11.3031 7.33625C13.3281 7.33625 14.9705 8.97798 14.9705 11.0022C14.9705 13.0264 13.3281 14.6682 11.3031 14.6682Z" fill="url(#paint1_linear_31_337)"/>
<path d="M18.5002 5.12714C18.5002 5.85775 17.9069 6.44654 17.1803 6.44654C16.4494 6.44654 15.8604 5.85346 15.8604 5.12714C15.8604 4.39653 16.4537 3.80774 17.1803 3.80774C17.9069 3.80774 18.5002 4.40083 18.5002 5.12714Z" fill="url(#paint2_linear_31_337)"/>
<defs>
<linearGradient id="paint0_linear_31_337" x1="11.2969" y1="0" x2="11.2969" y2="22" gradientUnits="userSpaceOnUse">
<stop stop-color="#B130B9"/>
<stop offset="1" stop-color="#FFC851"/>
</linearGradient>
<linearGradient id="paint1_linear_31_337" x1="11.3031" y1="5.35071" x2="11.3031" y2="16.6537" gradientUnits="userSpaceOnUse">
<stop stop-color="#B130B9"/>
<stop offset="1" stop-color="#FFC851"/>
</linearGradient>
<linearGradient id="paint2_linear_31_337" x1="17.1803" y1="3.80774" x2="17.1803" y2="6.44654" gradientUnits="userSpaceOnUse">
<stop stop-color="#B130B9"/>
<stop offset="1" stop-color="#FFC851"/>
</linearGradient>
</defs>
</svg>
