<svg width="25" height="25" viewBox="0 0 25 25" fill="none" xmlns="http://www.w3.org/2000/svg">
<path d="M8.80375 19.625C9.24138 21.2106 10.6942 22.375 12.4189 22.375H16.4189C18.49 22.375 20.1689 20.6961 20.1689 18.625V10.625C20.1689 8.90023 19.0045 7.44743 17.4189 7.00981V14.625C17.4189 17.3864 15.1804 19.625 12.4189 19.625H8.80375Z" fill="#1D1E23"/>
<path d="M8.41895 2.875C6.34788 2.875 4.66895 4.55393 4.66895 6.625V14.625C4.66895 16.6961 6.34788 18.375 8.41895 18.375H12.4189C14.49 18.375 16.1689 16.6961 16.1689 14.625V6.625C16.1689 4.55393 14.49 2.875 12.4189 2.875H8.41895Z" fill="#1D1E23"/>
</svg>
