<svg width="23" height="22" viewBox="0 0 23 22" fill="none" xmlns="http://www.w3.org/2000/svg">
<g clip-path="url(#clip0_31_333)">
<path d="M22.5156 11C22.5156 4.92486 17.5908 0 11.5156 0C5.44049 0 0.515625 4.92486 0.515625 11C0.515625 16.4903 4.53814 21.0412 9.79688 21.8664V14.1797H7.00391V11H9.79688V8.57656C9.79688 5.81969 11.4391 4.29688 13.9517 4.29688C15.1549 4.29688 16.4141 4.51172 16.4141 4.51172V7.21875H15.027C13.6606 7.21875 13.2344 8.06674 13.2344 8.9375V11H16.2852L15.7975 14.1797H13.2344V21.8664C18.4931 21.0412 22.5156 16.4903 22.5156 11Z" fill="#1877F2"/>
<path d="M15.7975 14.1797L16.2852 11H13.2344V8.9375C13.2344 8.0676 13.6606 7.21875 15.027 7.21875H16.4141V4.51172C16.4141 4.51172 15.1553 4.29688 13.9517 4.29688C11.4391 4.29688 9.79688 5.81969 9.79688 8.57656V11H7.00391V14.1797H9.79688V21.8664C10.9358 22.0445 12.0955 22.0445 13.2344 21.8664V14.1797H15.7975Z" fill="white"/>
</g>
<defs>
<clipPath id="clip0_31_333">
<rect width="22" height="22" fill="white" transform="translate(0.515625)"/>
</clipPath>
</defs>
</svg>
