<svg width="24" height="25" viewBox="0 0 24 25" fill="none" xmlns="http://www.w3.org/2000/svg">
<g clip-path="url(#clip0_22_1291)">
<path d="M18.4703 17.2831L18.8603 20.4431C18.9603 21.2731 18.0703 21.8531 17.3603 21.4231L13.9003 19.3631C13.6603 19.2231 13.6003 18.9231 13.7303 18.6831C14.2303 17.7631 14.5003 16.7231 14.5003 15.6831C14.5003 12.0231 11.3604 9.04313 7.50038 9.04313C6.71038 9.04313 5.94038 9.16313 5.22038 9.40313C4.85038 9.52313 4.49038 9.18313 4.58038 8.80312C5.49038 5.16312 8.99038 2.45312 13.1704 2.45312C18.0503 2.45312 22.0003 6.14313 22.0003 10.6931C22.0003 13.3931 20.6103 15.7831 18.4703 17.2831Z" fill="#1D1E23"/>
<path d="M13 15.683C13 16.873 12.56 17.973 11.82 18.843C10.83 20.043 9.26 20.813 7.5 20.813L4.89 22.363C4.45 22.633 3.89 22.263 3.95 21.753L4.2 19.783C2.86 18.853 2 17.363 2 15.683C2 13.923 2.94 12.373 4.38 11.453C5.27 10.873 6.34 10.543 7.5 10.543C10.54 10.543 13 12.843 13 15.683Z" fill="#1D1E23"/>
</g>
<defs>
<clipPath id="clip0_22_1291">
<rect width="24" height="24" fill="white" transform="translate(0 0.453125)"/>
</clipPath>
</defs>
</svg>
