<svg width="24" height="25" viewBox="0 0 24 25" fill="none" xmlns="http://www.w3.org/2000/svg">
<path fill-rule="evenodd" clip-rule="evenodd" d="M20.307 19.8003C20.3614 19.8075 20.4159 19.815 20.4703 19.8226L20.7438 19.861C21.9346 20.0281 23 19.1204 23 17.9388V17.0371C23 16.192 22.4592 15.4382 21.649 15.154C20.7129 14.8256 19.7466 14.6118 18.7711 14.5125C19.789 15.2485 20.4203 16.4402 20.4203 17.7403V18.8599C20.4203 19.185 20.3809 19.4999 20.307 19.8003ZM16.1812 13.3129C16.5868 13.4804 17.0324 13.5729 17.5 13.5729C19.3813 13.5729 20.9064 12.0749 20.9064 10.2269C20.9064 8.37893 19.3813 6.88086 17.5 6.88086C17.4443 6.88086 17.3889 6.88217 17.3338 6.88477C17.6759 7.61338 17.8671 8.42692 17.8671 9.28511C17.8671 10.8616 17.2219 12.2874 16.1812 13.3129Z" fill="#1D1E23"/>
<path fill-rule="evenodd" clip-rule="evenodd" d="M4.07387 19.8003C4.01942 19.8075 3.96499 19.815 3.91058 19.8226L3.63707 19.861C2.44625 20.0281 1.38084 19.1204 1.38084 17.9388V17.0371C1.38084 16.192 1.92166 15.4382 2.73185 15.154C3.66791 14.8256 4.63427 14.6118 5.60979 14.5125C4.59191 15.2485 3.96057 16.4402 3.96057 17.7403V18.8599C3.96057 19.185 3.99992 19.4999 4.07387 19.8003ZM8.19971 13.3129C7.79406 13.4804 7.34845 13.5729 6.88084 13.5729C4.99952 13.5729 3.47442 12.0749 3.47442 10.2269C3.47442 8.37893 4.99952 6.88086 6.88084 6.88086C6.93657 6.88086 6.992 6.88217 7.04707 6.88477C6.70496 7.61338 6.51377 8.42692 6.51377 9.28511C6.51377 10.8616 7.15896 12.2874 8.19971 13.3129Z" fill="#1D1E23"/>
<path fill-rule="evenodd" clip-rule="evenodd" d="M16.3671 9.28511C16.3671 6.99078 14.5071 5.13086 12.2128 5.13086C9.91848 5.13086 8.05856 6.99078 8.05856 9.28511C8.05856 11.5794 9.91848 13.4394 12.2128 13.4394C14.5071 13.4394 16.3671 11.5794 16.3671 9.28511Z" fill="#1D1E23"/>
<path fill-rule="evenodd" clip-rule="evenodd" d="M7.15298 15.4023C10.425 14.2337 14.0006 14.2337 17.2727 15.4023C18.2607 15.7552 18.9203 16.6911 18.9203 17.7403V18.8599C18.9203 20.3269 17.621 21.4538 16.1687 21.2463L15.8351 21.1986C13.4325 20.8554 10.9932 20.8554 8.59049 21.1986L8.25693 21.2463C6.80468 21.4538 5.50537 20.3269 5.50537 18.8599V17.7403C5.50537 16.6911 6.16492 15.7552 7.15298 15.4023Z" fill="#1D1E23"/>
</svg>
